<?xml version="1.0" encoding="utf-8"?>
<!-- Generator: Adobe Illustrator 23.0.3, SVG Export Plug-In . SVG Version: 6.00 Build 0)  -->
<svg version="1.1" id="Layer_1" xmlns="http://www.w3.org/2000/svg" xmlns:xlink="http://www.w3.org/1999/xlink" x="0px" y="0px"
	 viewBox="0 0 338.6 81.3" style="enable-background:new 0 0 338.6 81.3;" xml:space="preserve">
<style type="text/css">
	.st0{fill:#2CB79C;}
	.st1{font-family:'GrandHotel-Regular';}
	.st2{font-size:90.0161px;}
	.st3{fill:none;stroke:#2CB79C;stroke-width:3;stroke-miterlimit:10;}
</style>
<text transform="matrix(0.9939 0 -0.1103 0.9939 88.1728 70.1325)" class="st0 st1 st2">Nutshell</text>
<g>
	<path class="st0" d="M55.4,30.7l-1.7-2.6c-1.6-2.5-4.8-3.7-7.7-2.8l-14.2,4.1C29,30.3,27,33,27,36l0,3c0,0.5,0.5,0.9,1,0.7l27-7.9
		C55.5,31.7,55.7,31.1,55.4,30.7z"/>
	<path class="st0" d="M54.3,34.7L30,41.8l2.3,7.9c1.3,4.4,4.4,7.3,9.1,8.5c3.1,0.8,6,0.6,6.7,0.6c0.7-0.3,3.2-1.7,5.4-4.1
		c3.3-3.6,4.3-7.6,3-12.1L54.3,34.7z"/>
	<polygon class="st0" points="40,24.5 38.3,21.9 35.7,22.7 37.4,25.2 	"/>
	<path class="st0" d="M42.1,8C24.3,8,9.8,22.4,9.8,40.2s14.5,32.3,32.3,32.3s32.3-14.5,32.3-32.3S59.9,8,42.1,8z M55.4,56.4
		c-2.9,3.1-6.2,4.6-6.4,4.7c-0.5,0.2-4.5,0.5-8.3-0.5c-5.6-1.4-9.4-5-10.9-10.2l-2.4-8.1c-1.7-0.1-3.1-1.5-3.1-3.3l0-3
		c0-4.2,2.8-7.8,6.7-8.9l3.7-1.1l-2.2-3.3c-0.5-0.7-0.1-1.7,0.7-1.9l5.1-1.5c0.5-0.2,1.1,0.1,1.4,0.5l2.7,4l2.8-0.8
		c4-1.2,8.3,0.5,10.5,3.9l1.7,2.6c1,1.5,0.5,3.5-0.8,4.4l2.4,8.1C60.6,47.2,59.4,52.2,55.4,56.4z"/>
</g>
<circle class="st3" cx="42.1" cy="40.3" r="37.3"/>
</svg>
