<?xml version="1.0" encoding="utf-8"?>
<!-- Generator: Adobe Illustrator 23.0.3, SVG Export Plug-In . SVG Version: 6.00 Build 0)  -->
<svg version="1.1" id="Layer_1" xmlns="http://www.w3.org/2000/svg" xmlns:xlink="http://www.w3.org/1999/xlink" x="0px" y="0px"
	 viewBox="0 0 249.2 178.8" style="enable-background:new 0 0 249.2 178.8;" xml:space="preserve">
<style type="text/css">
	.st0{enable-background:new    ;}
	.st1{fill:#2CB79C;}
	.st2{fill:none;stroke:#2CB79C;stroke-width:3;stroke-miterlimit:10;}
</style>
<g class="st0">
	<path class="st1" d="M35.4,115.3c1.1-1.5,2.2-3,3.4-4.3c1.2-1.3,2.4-2.5,3.7-3.5s2.6-1.8,3.9-2.4c1.3-0.6,2.6-0.9,3.9-0.9
		c0.6,0,1.3,0.1,1.9,0.4c0.7,0.3,1.3,0.7,1.8,1.3c0.5,0.6,1,1.4,1.2,2.4c0.3,1,0.3,2.2,0.2,3.7l-5.8,52.2c-0.1,1.1-0.1,2,0,2.8
		c0.1,0.7,0.3,1.4,0.6,1.9c0.3,0.5,0.5,0.9,0.9,1.2c0.3,0.3,0.7,0.6,0.9,0.8s0.5,0.5,0.7,0.7c0.2,0.2,0.3,0.5,0.2,0.8
		c0,0.3-0.2,0.7-0.4,1c-0.3,0.3-0.6,0.7-1,1c-0.4,0.3-0.9,0.6-1.5,0.7c-0.6,0.2-1.2,0.3-1.9,0.3c-0.7,0-1.4-0.1-2.1-0.4
		s-1.4-0.8-2-1.6c-0.6-0.7-1-1.7-1.4-2.9c-0.3-1.2-0.4-2.8-0.2-4.7l5.9-53.1c0.1-0.6,0-0.9-0.1-1.1c-0.2-0.1-0.3-0.2-0.5-0.2
		c-0.5,0-1.1,0.4-2,1.1c-0.8,0.7-1.8,1.7-2.8,2.8c-1,1.2-2.1,2.5-3.1,4c-1.1,1.5-2.1,3.1-3,4.7c-0.9,1.6-1.7,3.2-2.3,4.7
		c-0.6,1.6-1,3-1.2,4.2l-3.8,34.5c-0.1,0.8-0.4,1.3-0.9,1.6c-0.5,0.3-1.1,0.5-1.8,0.5c-0.5,0-1-0.1-1.5-0.2c-0.5-0.1-1-0.3-1.4-0.6
		c-0.4-0.2-0.7-0.5-1-0.8c-0.2-0.3-0.3-0.6-0.3-1l6.2-55.6c-2,0.3-4,0.8-5.9,1.7c-1.9,0.9-3.6,2.1-5.1,3.6c-1.5,1.5-2.7,3.3-3.8,5.5
		c-1,2.2-1.7,4.6-2,7.5c-0.2,1.8-0.2,3.4,0,4.9c0.2,1.4,0.5,2.7,0.9,3.7c0.4,1,0.9,1.8,1.3,2.3c0.5,0.6,0.8,0.8,1.1,0.8
		c0.3,0,0.5-0.1,0.8-0.2c0.2-0.1,0.5-0.2,0.7-0.2c0.5,0,0.7,0.4,0.6,1.1c-0.1,0.8-0.3,1.5-0.7,2.2c-0.4,0.7-0.8,1.3-1.3,1.9
		c-0.5,0.5-1.1,1-1.7,1.3c-0.6,0.3-1.2,0.5-1.8,0.5c-0.8,0-1.6-0.5-2.6-1.4c-0.9-0.9-1.8-2.2-2.6-3.8c-0.8-1.6-1.4-3.6-1.8-5.8
		c-0.4-2.2-0.5-4.7-0.2-7.3c0.3-3.1,1-6,2.1-8.5c1-2.5,2.3-4.7,3.8-6.5c1.5-1.9,3.1-3.5,5-4.8c1.8-1.3,3.7-2.4,5.7-3.2
		c2-0.8,3.9-1.4,5.9-1.8c2-0.4,3.8-0.5,5.6-0.5c0.5,0,0.9,0.1,1.3,0.3c0.4,0.2,0.8,0.5,1,0.8c0.3,0.3,0.5,0.7,0.7,1.2
		c0.2,0.5,0.2,1,0.1,1.5L35.4,115.3z"/>
	<path class="st1" d="M82,169.3c-1,0-1.9-0.2-2.7-0.5s-1.5-0.8-2-1.3c-0.6-0.6-1-1.2-1.3-2c-0.3-0.8-0.5-1.6-0.5-2.5
		c-1.3,1.9-2.7,3.4-4.3,4.6c-1.6,1.2-3.4,1.8-5.4,1.8c-1.5,0-2.8-0.3-3.9-0.9c-1.1-0.6-2-1.5-2.7-2.6c-0.7-1.1-1.2-2.5-1.4-4.1
		c-0.2-1.6-0.3-3.4,0-5.3c0.3-2.4,0.7-4.7,1.3-7.1c0.6-2.4,1.2-4.5,1.8-6.5c0.7-2.2,1.5-4.4,2.3-6.5c0.2-0.4,0.3-0.8,0.5-1.2
		c0.1-0.4,0.3-0.7,0.6-1.1c0.3-0.3,0.7-0.6,1.3-0.8c0.6-0.2,1.5-0.3,2.7-0.3c1.1,0,1.8,0.2,2.1,0.6c0.3,0.4,0.3,0.9,0.2,1.4
		c-0.1,0.5-0.4,1.1-0.7,1.6c-0.3,0.6-0.6,1-0.7,1.4c-0.6,1.7-1.1,3.2-1.6,4.5s-0.9,2.7-1.3,4.1c-0.4,1.4-0.7,2.8-1,4.3
		c-0.3,1.5-0.5,3.2-0.7,5c-0.3,2.4-0.1,4.3,0.5,5.5c0.6,1.3,1.5,1.9,2.8,1.9c0.9,0,1.8-0.3,2.6-1c0.8-0.7,1.6-1.6,2.4-2.7
		c0.8-1.1,1.4-2.4,2.1-3.8s1.2-2.9,1.6-4.5L78,137c0.1-0.6,0.1-1.2,0-1.5c-0.1-0.4-0.1-0.7-0.2-0.9c-0.1-0.2-0.2-0.4-0.2-0.5
		c-0.1-0.1-0.1-0.3-0.1-0.5c0-0.1,0.1-0.3,0.3-0.4c0.2-0.1,0.4-0.2,0.7-0.3c0.3-0.1,0.6-0.2,1-0.2c0.3,0,0.7-0.1,1-0.1
		c1.5,0,2.6,0.4,3.4,1.2c0.8,0.8,1.1,1.7,1,2.8l-2.5,22.7c0,0.2,0,0.5-0.1,1c0,0.5,0,0.9,0.1,1.4c0.1,0.5,0.3,0.9,0.6,1.2
		c0.3,0.3,0.7,0.5,1.3,0.5c0.9,0,1.7-0.3,2.4-1c0.7-0.6,1.4-1.4,2-2.4c0.6-1,1.1-2,1.5-3.1c0.4-1.1,0.8-2.2,1.1-3.2
		c0.3-0.9,0.6-1.6,1.1-2c0.5-0.4,0.9-0.6,1.3-0.6c0.3,0,0.7,0.1,1.1,0.3c0.4,0.2,0.7,0.5,0.9,0.9c0.3,0.3,0.5,0.7,0.6,1.2
		c0.1,0.4,0.2,0.9,0.1,1.3c0,0.1,0,0.1,0,0.2c0,0.1-0.1,0.2-0.1,0.4c-0.6,1.5-1.3,3-2.1,4.7c-0.8,1.6-1.8,3.1-3,4.5
		c-1.2,1.4-2.5,2.5-4,3.4C85.6,168.9,83.9,169.3,82,169.3z"/>
	<path class="st1" d="M86.8,124.8c0.7,0.1,1.4,0.1,2.2,0.1c0.7,0.1,1.5,0.1,2.5,0.1c1,0,2.1,0,3.3,0.1l1.7-15.2
		c0.1-0.6,0.1-1.1,0-1.5c-0.1-0.4-0.1-0.7-0.2-0.9c-0.1-0.2-0.2-0.4-0.2-0.5c-0.1-0.1-0.1-0.3-0.1-0.4c0-0.2,0.1-0.3,0.3-0.4
		c0.2-0.1,0.4-0.2,0.7-0.3c0.3-0.1,0.6-0.2,1-0.2c0.3,0,0.7-0.1,1-0.1c1.5,0,2.6,0.4,3.4,1.2c0.8,0.8,1.1,1.7,1,2.8l-1.7,15.7
		c2.7,0,5.6,0,8.7-0.1c3-0.1,6.1-0.2,9.2-0.3c0.5-0.4,0.8-0.6,1-0.5c0.2,0.1,0.4,0.4,0.4,0.8c0,0.4,0,1-0.2,1.6
		c-0.1,0.6-0.3,1.3-0.6,1.9c-0.2,0.6-0.5,1.1-0.9,1.6c-0.4,0.4-0.7,0.7-1.1,0.7c-3.6,0.1-6.8,0.1-9.5,0.2c-2.8,0-5.3,0-7.7,0
		l-3.1,28.4c-0.2,1.5,0,2.5,0.5,3.1c0.5,0.6,1.2,1,2.1,1c0.9,0,1.7-0.3,2.4-1c0.7-0.6,1.4-1.4,2-2.4c0.6-1,1.1-2,1.5-3.1
		c0.4-1.1,0.8-2.2,1.1-3.2c0.3-0.9,0.6-1.6,1.1-2c0.5-0.4,0.9-0.6,1.3-0.6c0.3,0,0.7,0.1,1.1,0.3c0.4,0.2,0.7,0.5,0.9,0.9
		c0.3,0.3,0.5,0.7,0.6,1.2c0.1,0.4,0.2,0.9,0.1,1.3c0,0.1,0,0.1,0,0.2c0,0.1-0.1,0.2-0.1,0.4c-0.5,1.5-1.2,3-2.1,4.7
		c-0.8,1.6-1.8,3.1-3,4.5c-1.2,1.4-2.5,2.5-4.1,3.4c-1.5,0.9-3.3,1.4-5.2,1.4c-1.2,0-2.3-0.2-3.2-0.5c-1-0.4-1.8-0.9-2.4-1.7
		c-0.6-0.8-1.1-1.8-1.4-3.1c-0.3-1.3-0.3-2.8-0.1-4.5l3.2-28.4c-1,0-1.9,0-2.6,0c-0.8,0-1.4,0-1.9-0.1c-0.6,0-1.1-0.1-1.6-0.1
		c-0.7,0-1.3-0.3-1.8-0.9c-0.5-0.6-0.8-1.3-0.9-2.1c-0.1-0.8-0.1-1.4,0.1-2.1C85.7,125.1,86.1,124.8,86.8,124.8z"/>
	<path class="st1" d="M112.8,154.6c-0.3,0.9-0.8,1.5-1.5,1.7c-0.7,0.2-1.3,0.2-1.9-0.1c-0.6-0.3-1.1-0.7-1.4-1.4
		c-0.4-0.6-0.4-1.3-0.1-2.1c0.7-2,1.5-4.2,2.6-6.6s2.2-4.8,3.3-7.2c-0.4-0.7-0.6-1.3-0.8-2c-0.2-0.7-0.2-1.4-0.2-2.2
		c0.1-0.8,0.5-1.5,1.1-2.4c0.7-0.8,1.4-1.6,2.3-2.3s1.8-1.3,2.7-1.7c0.9-0.5,1.7-0.7,2.3-0.7c1.1,0,1.8,0.4,2.3,1.1
		c0.5,0.7,0.6,1.7,0.5,2.9c-0.1,0.7-0.3,1.3-0.5,2s-0.6,1.3-0.9,1.8c-0.3,0.6-0.6,1.1-0.9,1.5c-0.3,0.4-0.4,0.7-0.5,0.8
		c0.8,1.9,1.8,3.5,2.7,4.9c1,1.4,1.9,2.8,2.7,4.2c0.8,1.4,1.4,2.9,1.8,4.5c0.4,1.6,0.5,3.4,0.3,5.5c-0.1,0.5-0.2,1.1-0.3,1.6
		c-0.1,0.6-0.3,1.1-0.5,1.6c1.1-0.2,2-0.5,2.9-1c0.8-0.4,1.6-0.9,2.3-1.5c0.7-0.6,1.2-1.2,1.7-1.9s0.9-1.4,1.2-2.1
		c0.4-0.8,0.8-1.5,1.2-1.8c0.4-0.4,0.7-0.6,1.2-0.6c0.4,0,0.8,0.1,1.1,0.4c0.4,0.2,0.7,0.6,0.9,0.9s0.5,0.8,0.6,1.2
		c0.1,0.4,0.2,0.8,0.2,1.1c0,0.4-0.2,1-0.5,1.6c-0.3,0.6-0.7,1.2-1.1,1.9c-0.5,0.6-1,1.3-1.5,1.9c-0.6,0.6-1.1,1.1-1.7,1.6
		c-1.5,1.1-3.3,2.1-5.3,2.9s-4.4,1.3-7.2,1.5c-1.2,0.9-2.5,1.7-4.1,2.3c-1.5,0.6-3.2,0.9-5.1,0.9c-0.9,0-1.9-0.1-2.8-0.3
		s-1.8-0.5-2.7-0.9c-0.8-0.4-1.6-0.8-2.3-1.2c-0.7-0.4-1.2-0.9-1.6-1.3c-1-1-1.6-2.1-1.8-3.2c-0.2-1.1-0.2-2,0.1-2.9
		c0.3-0.8,0.6-1.5,1.2-2.1c0.5-0.5,1-0.8,1.5-0.8c0.3,0,0.7,0.1,1.3,0.4c0.6,0.2,1.3,0.6,2.1,1c0.8,0.4,1.6,0.8,2.5,1.2
		c0.9,0.4,1.8,0.9,2.7,1.2c0.9,0.4,1.8,0.7,2.7,1c0.9,0.2,1.7,0.4,2.5,0.4c0.6-0.6,1.1-1.4,1.6-2.3c0.5-1,0.8-2,1-3.1
		c0.2-1.4,0.1-2.7-0.1-3.9c-0.2-1.2-0.6-2.3-1.1-3.3c-0.5-1-1.1-2-1.8-2.9c-0.7-0.9-1.4-1.7-2.1-2.5c-0.9,1.7-1.7,3.4-2.4,5.1
		C114.4,150.5,113.6,152.4,112.8,154.6z"/>
	<path class="st1" d="M141,111.7c0.1-0.6,0.1-1.2,0-1.5c-0.1-0.4-0.1-0.7-0.2-0.9s-0.2-0.4-0.2-0.5c-0.1-0.1-0.1-0.3-0.1-0.4
		c0-0.2,0.1-0.3,0.3-0.4s0.4-0.2,0.7-0.3c0.3-0.1,0.6-0.2,1-0.2c0.3,0,0.7-0.1,1-0.1c1.5,0,2.6,0.4,3.4,1.2c0.8,0.8,1.1,1.7,1,2.8
		l-3.3,29.4c0.8-1.3,1.5-2.4,2.4-3.5c0.8-1.1,1.7-2,2.6-2.8c0.9-0.8,1.9-1.4,2.9-1.9c1-0.5,2-0.7,3.2-0.7c1.5,0,2.7,0.3,3.6,0.8
		c0.9,0.6,1.6,1.3,2,2.1c0.5,0.9,0.7,1.8,0.8,2.9c0.1,1.1,0.1,2.1,0,3.1l-2.1,18.5c0,0.2,0,0.5-0.1,1c0,0.5,0,0.9,0.1,1.4
		c0.1,0.5,0.3,0.9,0.5,1.2s0.7,0.5,1.3,0.5c0.9,0,1.7-0.3,2.4-1c0.7-0.6,1.4-1.4,2-2.4c0.6-1,1.1-2,1.5-3.1c0.4-1.1,0.8-2.2,1.1-3.2
		c0.3-0.9,0.6-1.6,1-2c0.4-0.4,0.8-0.6,1.3-0.7c0.4,0,0.8,0.1,1.3,0.3c0.4,0.3,0.7,0.6,1,1s0.5,0.9,0.6,1.4c0.1,0.5,0.1,1-0.1,1.5
		c-0.6,1.5-1.3,3-2.1,4.7c-0.8,1.6-1.8,3.1-3,4.5c-1.2,1.4-2.5,2.5-4,3.4c-1.5,0.9-3.3,1.4-5.2,1.4c-1.2,0-2.2-0.2-3.1-0.7
		c-0.9-0.5-1.6-1.1-2.2-1.8c-0.6-0.8-1-1.6-1.2-2.7c-0.2-1-0.3-2.1-0.1-3.2l2-18.2c0.1-0.7,0.1-1.4,0.2-2c0-0.6,0-1.1-0.1-1.6
		c-0.1-0.5-0.2-0.8-0.4-1.1c-0.2-0.3-0.5-0.4-1-0.4c-0.6,0-1.5,0.4-2.5,1.3c-1,0.9-2.1,2-3.1,3.4c-1.1,1.4-2,3-2.9,4.7
		c-0.9,1.8-1.5,3.5-1.9,5.3l-1.4,13.1c0,0.4-0.1,0.9-0.2,1.3c-0.1,0.5-0.2,0.9-0.4,1.2c-0.2,0.4-0.5,0.7-0.8,0.9
		c-0.4,0.2-0.9,0.4-1.5,0.4c-0.4,0-0.9-0.1-1.4-0.2c-0.5-0.1-0.9-0.3-1.3-0.6c-0.4-0.3-0.7-0.7-0.9-1.2c-0.2-0.5-0.3-1.2-0.2-2
		L141,111.7z"/>
	<path class="st1" d="M191.3,140.8c-0.2,1.7-0.7,3.4-1.4,5.1c-0.8,1.7-1.8,3.4-3.1,5c-1.3,1.6-2.8,3-4.6,4.2c-1.8,1.2-3.8,2.2-6,2.8
		c0.2,0.8,0.5,1.5,0.9,2.2c0.4,0.7,0.9,1.3,1.5,1.8c0.6,0.5,1.4,0.9,2.2,1.2c0.9,0.3,1.9,0.4,3,0.4c1.7,0,3.3-0.3,4.6-1
		c1.3-0.7,2.5-1.5,3.5-2.6s1.8-2.3,2.5-3.6c0.7-1.3,1.2-2.7,1.6-4.1c0.3-1,0.8-1.7,1.5-2c0.7-0.3,1.3-0.4,1.9-0.2
		c0.6,0.2,1.2,0.5,1.6,1.1c0.4,0.6,0.5,1.2,0.4,2c-0.2,0.9-0.5,1.9-0.9,3.1s-1,2.3-1.6,3.5c-0.7,1.2-1.5,2.4-2.5,3.5
		c-1,1.2-2.2,2.2-3.5,3.1s-2.9,1.6-4.7,2.2s-3.7,0.8-5.9,0.8c-2,0-4-0.4-5.8-1.2c-1.8-0.8-3.4-2-4.7-3.5s-2.3-3.3-2.9-5.5
		c-0.6-2.2-0.8-4.7-0.5-7.5c0.3-2.8,1-5.5,2.1-7.9c1.1-2.4,2.3-4.5,3.8-6.3c1.5-1.8,3.1-3.2,4.8-4.2s3.5-1.5,5.2-1.5
		c1.2,0,2.4,0.2,3.3,0.7c1,0.4,1.7,1.1,2.3,1.9c0.6,0.8,1,1.8,1.3,2.9C191.4,138.2,191.5,139.5,191.3,140.8z M175.7,151.4
		c0,0.3,0,0.5,0,0.8c0,0.3,0,0.5,0,0.8c1.2-0.5,2.2-1.2,3.2-2c1-0.8,1.9-1.7,2.6-2.8c0.8-1,1.4-2.2,1.9-3.4c0.5-1.2,0.8-2.5,1-3.9
		c0.1-1,0-1.8-0.2-2.3s-0.7-0.8-1.3-0.8c-0.7,0-1.4,0.2-2,0.7c-0.6,0.5-1.2,1.1-1.7,1.9c-0.5,0.8-1,1.7-1.3,2.7c-0.4,1-0.7,2-1,3
		s-0.5,2-0.7,2.9C175.9,150,175.8,150.8,175.7,151.4z"/>
	<path class="st1" d="M215.3,153.9c0.3-0.9,0.6-1.5,1-1.9c0.4-0.4,0.8-0.6,1.3-0.7c0.4,0,0.8,0.1,1.3,0.3c0.4,0.2,0.8,0.6,1,1
		s0.5,0.9,0.6,1.4c0.1,0.5,0.1,1-0.1,1.5c-0.5,1.2-1.3,2.6-2.2,4.2c-0.9,1.6-2.1,3.1-3.4,4.5c-1.3,1.4-2.8,2.6-4.5,3.6
		c-1.7,1-3.5,1.5-5.6,1.5c-1.7,0-3.2-0.3-4.5-0.9c-1.2-0.6-2.3-1.4-3-2.4c-0.8-1-1.3-2.3-1.6-3.7c-0.3-1.4-0.3-3-0.1-4.8l4.5-40.7
		c0.2-1.7,0.6-3.2,1.1-4.6c0.6-1.4,1.3-2.6,2.2-3.6c0.9-1,1.8-1.8,2.9-2.4c1.1-0.6,2.1-0.9,3.2-0.9c1.3,0,2.4,0.2,3.2,0.7
		c0.8,0.5,1.5,1.1,2,1.9c0.5,0.8,0.9,1.7,1.1,2.7c0.2,1,0.3,2.1,0.4,3.1c0,1.1,0,2.1-0.1,3.1c-0.1,1-0.2,2-0.3,2.8
		c-0.2,2.2-0.7,4.5-1.4,6.9c-0.7,2.4-1.5,4.8-2.3,7.1s-1.8,4.6-2.8,6.7c-1,2.1-1.9,4-2.8,5.7c-0.9,1.7-1.6,3-2.3,4.1
		c-0.7,1-1.1,1.7-1.3,1.8l-0.6,5.2c-0.2,1.8,0,3.3,0.6,4.4s1.8,1.7,3.4,1.7c1,0,2-0.3,3-0.9c1-0.6,1.8-1.4,2.6-2.4s1.5-2,2.1-3.1
		C214.6,155.9,215,154.8,215.3,153.9z M204.1,140.4c0.4-0.6,0.8-1.4,1.2-2.5c0.4-1,0.8-2.2,1.3-3.4c0.4-1.3,0.8-2.6,1.2-3.9
		c0.4-1.4,0.7-2.7,1.1-4s0.6-2.5,0.8-3.7s0.4-2.1,0.5-2.9c0.3-3,0.4-5.1,0.1-6.5c-0.3-1.4-0.8-2.1-1.5-2.1c-0.2,0-0.4,0.1-0.7,0.3
		c-0.2,0.2-0.4,0.5-0.5,0.9c-0.2,0.4-0.3,0.8-0.4,1.2c-0.1,0.4-0.2,0.8-0.2,1.2L204.1,140.4z"/>
	<path class="st1" d="M235.1,153.9c0.3-0.9,0.6-1.5,1-1.9c0.4-0.4,0.8-0.6,1.3-0.7c0.4,0,0.8,0.1,1.3,0.3c0.4,0.2,0.8,0.6,1,1
		c0.3,0.4,0.5,0.9,0.6,1.4c0.1,0.5,0.1,1-0.1,1.5c-0.5,1.2-1.3,2.6-2.2,4.2c-0.9,1.6-2.1,3.1-3.4,4.5c-1.3,1.4-2.8,2.6-4.5,3.6
		c-1.7,1-3.5,1.5-5.6,1.5c-1.7,0-3.2-0.3-4.4-0.9c-1.2-0.6-2.3-1.4-3-2.4c-0.8-1-1.3-2.3-1.6-3.7c-0.3-1.4-0.3-3-0.1-4.8l4.5-40.7
		c0.2-1.7,0.6-3.2,1.1-4.6c0.6-1.4,1.3-2.6,2.2-3.6c0.9-1,1.8-1.8,2.9-2.4c1.1-0.6,2.1-0.9,3.2-0.9c1.3,0,2.4,0.2,3.2,0.7
		c0.8,0.5,1.5,1.1,2,1.9c0.5,0.8,0.9,1.7,1.1,2.7c0.2,1,0.3,2.1,0.4,3.1c0,1.1,0,2.1-0.1,3.1c-0.1,1-0.2,2-0.3,2.8
		c-0.2,2.2-0.7,4.5-1.4,6.9c-0.7,2.4-1.5,4.8-2.3,7.1c-0.9,2.3-1.8,4.6-2.8,6.7c-1,2.1-1.9,4-2.8,5.7s-1.6,3-2.3,4.1
		c-0.7,1-1.1,1.7-1.3,1.8l-0.6,5.2c-0.2,1.8,0,3.3,0.6,4.4c0.6,1.2,1.8,1.7,3.4,1.7c1,0,2-0.3,3-0.9s1.8-1.4,2.6-2.4
		c0.8-0.9,1.5-2,2.1-3.1C234.3,155.9,234.7,154.8,235.1,153.9z M223.8,140.4c0.4-0.6,0.8-1.4,1.2-2.5c0.4-1,0.8-2.2,1.3-3.4
		c0.4-1.3,0.8-2.6,1.2-3.9c0.4-1.4,0.7-2.7,1.1-4s0.6-2.5,0.8-3.7c0.2-1.2,0.4-2.1,0.5-2.9c0.3-3,0.4-5.1,0.1-6.5
		c-0.3-1.4-0.8-2.1-1.5-2.1c-0.2,0-0.4,0.1-0.6,0.3c-0.2,0.2-0.4,0.5-0.5,0.9c-0.2,0.4-0.3,0.8-0.4,1.2c-0.1,0.4-0.2,0.8-0.2,1.2
		L223.8,140.4z"/>
</g>
<g>
	<path class="st1" d="M134.7,37.6L133,35c-1.6-2.5-4.8-3.7-7.7-2.8l-14.2,4.1c-2.8,0.9-4.8,3.6-4.8,6.6v3c0,0.5,0.5,0.9,1,0.7
		l27-7.9C134.8,38.6,135,38,134.7,37.6z"/>
	<path class="st1" d="M133.6,41.6l-24.3,7.1l2.3,7.9c1.3,4.4,4.4,7.3,9.1,8.5c3.1,0.8,6,0.6,6.7,0.6c0.7-0.3,3.2-1.7,5.4-4.1
		c3.3-3.6,4.3-7.6,3-12.1L133.6,41.6z"/>
	<polygon class="st1" points="119.3,31.4 117.6,28.8 115,29.6 116.7,32.1 	"/>
	<path class="st1" d="M121.4,14.9c-17.8,0-32.3,14.4-32.3,32.2s14.5,32.3,32.3,32.3s32.3-14.5,32.3-32.3S139.2,14.9,121.4,14.9z
		 M134.7,63.3c-2.9,3.1-6.2,4.6-6.4,4.7c-0.5,0.2-4.5,0.5-8.3-0.5c-5.6-1.4-9.4-5-10.9-10.2l-2.4-8.1c-1.7-0.1-3.1-1.5-3.1-3.3v-3
		c0-4.2,2.8-7.8,6.7-8.9l3.7-1.1l-2.2-3.3c-0.5-0.7-0.1-1.7,0.7-1.9l5.1-1.5c0.5-0.2,1.1,0.1,1.4,0.5l2.7,4l2.8-0.8
		c4-1.2,8.3,0.5,10.5,3.9l1.7,2.6c1,1.5,0.5,3.5-0.8,4.4l2.4,8.1C139.9,54.1,138.7,59.1,134.7,63.3z"/>
</g>
<circle class="st2" cx="121.4" cy="47.2" r="37.3"/>
</svg>
