<?xml version="1.0" encoding="utf-8"?>
<!-- Generator: Adobe Illustrator 23.0.3, SVG Export Plug-In . SVG Version: 6.00 Build 0)  -->
<svg version="1.1" id="Layer_1" xmlns="http://www.w3.org/2000/svg" xmlns:xlink="http://www.w3.org/1999/xlink" x="0px" y="0px"
	 viewBox="0 0 401 71" style="enable-background:new 0 0 401 71;" xml:space="preserve">
<style type="text/css">
	.st0{fill:#2CB79C;}
</style>
<g>
	<path class="st0" d="M110.36,65.24L77.86,31.77l-3.15-3.53v37h-9.38V15.26h9.01l31.52,33.39l3.23,3.6v-37h9.38v49.98H110.36z"/>
	<path class="st0" d="M164.91,65.24V54.21c-4.28,7.88-9.98,12.01-18.24,12.01c-9.46,0-14.56-5.4-14.56-13.66V30.12h9v20.86
		c0,5.85,3.15,8.93,9.31,8.93c6.9,0,13.73-6.6,13.73-15.08V30.12h8.93v35.12H164.91z"/>
	<path class="st0" d="M198.16,35.97v18.54c0,3.98,1.88,7.95,5.25,10.73h-10.43c-2.55-2.33-3.83-6.15-3.83-10.73V35.97h-7.58v-5.85
		h7.58v-6.08l9-3.15v9.23h9.38v5.85H198.16z"/>
	<path class="st0" d="M245.96,39.65c-2.93-2.25-8.18-4.58-13.13-4.58c-6.38,0-10.06,1.88-10.06,4.28c0,7.13,28.97,1.28,28.97,15.46
		c0,5.1-6.08,11.03-18.61,11.03c-7.8,0-14.93-2.33-19.96-6.68l5.03-4.58c4.35,3.08,9.68,5.18,15.61,5.18c6.15,0,9.68-1.58,9.68-4.58
		c0-7.43-28.74-1.58-28.74-15.16c0-5.4,6.23-11.03,17.41-11.03c8.4,0,13.81,2.4,18.99,6.3L245.96,39.65z"/>
	<path class="st0" d="M292.11,65.24V44.38c0-5.85-2.55-8.93-8.1-8.93c-7.2,0-13.88,6.9-13.88,15.46v14.33h-8.55V15.26h8.55v23.86
		c4.13-7.2,10.66-9.98,17.71-9.98c8.18,0,13.28,6,13.28,13.96v22.14H292.11z"/>
	<path class="st0" d="M319.8,48.88v0.23c0,6,5.7,10.66,13.58,10.66c6.38,0,9.98-1.73,14.18-5.18l4.5,4.2
		c-4.95,4.73-10.66,7.05-19.44,7.05c-12.01,0-21.54-7.2-21.54-17.64v-0.68c0-9.91,8.1-18.54,20.94-18.54
		c13.13,0,21.16,8.4,21.16,18.76v1.13H319.8z M344.56,44.08c0-4.05-5.25-9-12.38-9c-7.28,0-12.16,4.28-12.16,9v0.08h24.54V44.08z"/>
	<path class="st0" d="M363.47,65.24V15.26h8.55v49.98H363.47z"/>
	<path class="st0" d="M385.54,65.24V15.26h8.55v49.98H385.54z"/>
</g>
<g>
	<path class="st0" d="M23.66,7.76c-0.57-0.77-0.02-1.86,0.94-1.87l2.73-0.02l2.73-0.02c0.96-0.01,1.52,1.08,0.96,1.86l-2.71,3.8
		c-0.47,0.65-1.43,0.66-1.91,0.01L23.66,7.76z M47.26,39.78c-3-0.73-18.65-1.39-19.68-1.43c-0.04,0-0.07,0-0.11,0
		c-1.03,0.05-16.67,0.9-19.66,1.66c-2.87,0.74-1.72,4.45-1.54,4.97c0.02,0.05,0.03,0.09,0.04,0.14l2.78,13.81
		c0.25,1.23,1.04,2.29,2.16,2.86l11.79,6.1c1.3,0.67,2.48,1.53,3.52,2.56c0.64,0.63,1.67,0.63,2.3-0.01c1.03-1.04,2.2-1.91,3.49-2.6
		l11.73-6.25c1.11-0.59,1.88-1.65,2.12-2.88l2.62-13.85c0.01-0.05,0.02-0.09,0.04-0.14C49.03,44.21,50.13,40.48,47.26,39.78z
		 M46.58,23.41c-0.12-0.16-0.29-0.29-0.48-0.37l-16.38-6.9c-1.49-0.63-3.18-0.62-4.67,0.03l-16.3,7.1
		c-0.19,0.08-0.35,0.21-0.47,0.37c-0.73,0.99-3.23,4.77-2.73,9.66c0.1,0.94,0.92,1.63,1.86,1.53c3.97-0.42,14.5-1.47,20.08-1.51
		c5.53-0.03,15.95,0.88,20,1.26c0.99,0.09,1.87-0.65,1.95-1.64C49.84,28.09,47.32,24.38,46.58,23.41z"/>
</g>
</svg>
