<?xml version="1.0" encoding="utf-8"?>
<!-- Generator: Adobe Illustrator 23.0.3, SVG Export Plug-In . SVG Version: 6.00 Build 0)  -->
<svg version="1.1" id="Layer_1" xmlns="http://www.w3.org/2000/svg" xmlns:xlink="http://www.w3.org/1999/xlink" x="0px" y="0px"
	 viewBox="0 0 249.2 178.8" style="enable-background:new 0 0 249.2 178.8;" xml:space="preserve">
<style type="text/css">
	.st0{fill:#2CB79C;}
	.st1{font-family:'GrandHotel-Regular';}
	.st2{font-size:90.0161px;}
	.st3{fill:none;stroke:#2CB79C;stroke-width:3;stroke-miterlimit:10;}
</style>
<text transform="matrix(0.9939 0 -0.1103 0.9939 -0.6273 166.8287)" class="st0 st1 st2">Nutshell</text>
<g>
	<path class="st0" d="M134.7,37.6L133,35c-1.6-2.5-4.8-3.7-7.7-2.8l-14.2,4.1c-2.8,0.9-4.8,3.6-4.8,6.6v3c0,0.5,0.5,0.9,1,0.7
		l27-7.9C134.8,38.6,135,38,134.7,37.6z"/>
	<path class="st0" d="M133.6,41.6l-24.3,7.1l2.3,7.9c1.3,4.4,4.4,7.3,9.1,8.5c3.1,0.8,6,0.6,6.7,0.6c0.7-0.3,3.2-1.7,5.4-4.1
		c3.3-3.6,4.3-7.6,3-12.1L133.6,41.6z"/>
	<polygon class="st0" points="119.3,31.4 117.6,28.8 115,29.6 116.7,32.1 	"/>
	<path class="st0" d="M121.4,14.9c-17.8,0-32.3,14.4-32.3,32.2s14.5,32.3,32.3,32.3s32.3-14.5,32.3-32.3S139.2,14.9,121.4,14.9z
		 M134.7,63.3c-2.9,3.1-6.2,4.6-6.4,4.7c-0.5,0.2-4.5,0.5-8.3-0.5c-5.6-1.4-9.4-5-10.9-10.2l-2.4-8.1c-1.7-0.1-3.1-1.5-3.1-3.3v-3
		c0-4.2,2.8-7.8,6.7-8.9l3.7-1.1l-2.2-3.3c-0.5-0.7-0.1-1.7,0.7-1.9l5.1-1.5c0.5-0.2,1.1,0.1,1.4,0.5l2.7,4l2.8-0.8
		c4-1.2,8.3,0.5,10.5,3.9l1.7,2.6c1,1.5,0.5,3.5-0.8,4.4l2.4,8.1C139.9,54.1,138.7,59.1,134.7,63.3z"/>
</g>
<circle class="st3" cx="121.4" cy="47.2" r="37.3"/>
</svg>
