<?xml version="1.0" encoding="utf-8"?>
<!-- Generator: Adobe Illustrator 23.0.3, SVG Export Plug-In . SVG Version: 6.00 Build 0)  -->
<svg version="1.1" id="Layer_1" xmlns="http://www.w3.org/2000/svg" xmlns:xlink="http://www.w3.org/1999/xlink" x="0px" y="0px"
	 viewBox="0 0 338.6 81.3" style="enable-background:new 0 0 338.6 81.3;" xml:space="preserve">
<style type="text/css">
	.st0{enable-background:new    ;}
	.st1{fill:#2CB79C;}
	.st2{fill:none;stroke:#2CB79C;stroke-width:3;stroke-miterlimit:10;}
</style>
<g class="st0">
	<path class="st1" d="M124.2,18.6c1.1-1.5,2.2-3,3.4-4.3c1.2-1.3,2.4-2.5,3.7-3.5c1.3-1,2.6-1.8,3.9-2.4c1.3-0.6,2.6-0.9,3.9-0.9
		c0.6,0,1.3,0.1,1.9,0.4c0.7,0.3,1.3,0.7,1.8,1.3c0.5,0.6,1,1.4,1.2,2.4c0.3,1,0.3,2.2,0.2,3.7l-5.8,52.2c-0.1,1.1-0.1,2,0,2.8
		c0.1,0.7,0.3,1.4,0.6,1.9c0.3,0.5,0.5,0.9,0.9,1.2c0.3,0.3,0.7,0.6,0.9,0.8c0.3,0.2,0.5,0.5,0.7,0.7c0.2,0.2,0.3,0.5,0.2,0.8
		c0,0.3-0.2,0.7-0.4,1c-0.3,0.3-0.6,0.7-1,1c-0.4,0.3-0.9,0.6-1.5,0.7c-0.6,0.2-1.2,0.3-1.9,0.3c-0.7,0-1.4-0.1-2.1-0.4
		s-1.4-0.8-2-1.6c-0.6-0.7-1-1.7-1.4-2.9c-0.3-1.2-0.4-2.8-0.2-4.7l5.9-53.1c0.1-0.6,0-0.9-0.1-1.1c-0.2-0.1-0.3-0.2-0.5-0.2
		c-0.5,0-1.1,0.4-2,1.1c-0.8,0.7-1.8,1.7-2.8,2.8c-1,1.2-2.1,2.5-3.1,4c-1.1,1.5-2.1,3.1-3,4.7c-0.9,1.6-1.7,3.2-2.3,4.7
		c-0.6,1.6-1,3-1.2,4.2l-3.8,34.5c-0.1,0.8-0.4,1.3-0.9,1.6c-0.5,0.3-1.1,0.5-1.8,0.5c-0.5,0-1-0.1-1.5-0.2c-0.5-0.1-1-0.3-1.4-0.6
		c-0.4-0.2-0.7-0.5-1-0.8c-0.2-0.3-0.3-0.6-0.3-1l6.2-55.6c-2,0.3-4,0.8-5.9,1.7c-1.9,0.9-3.6,2.1-5.1,3.6c-1.5,1.5-2.7,3.3-3.8,5.5
		c-1,2.2-1.7,4.6-2,7.5c-0.2,1.8-0.2,3.4,0,4.9c0.2,1.4,0.5,2.7,0.9,3.7c0.4,1,0.9,1.8,1.3,2.3c0.5,0.6,0.8,0.8,1.1,0.8
		c0.3,0,0.5-0.1,0.8-0.2c0.2-0.1,0.5-0.2,0.7-0.2c0.5,0,0.7,0.4,0.6,1.1c-0.1,0.8-0.3,1.5-0.7,2.2c-0.4,0.7-0.8,1.3-1.3,1.9
		c-0.5,0.5-1.1,1-1.7,1.3c-0.6,0.3-1.2,0.5-1.8,0.5c-0.8,0-1.6-0.5-2.6-1.4c-0.9-0.9-1.8-2.2-2.6-3.8c-0.8-1.6-1.4-3.6-1.8-5.8
		c-0.4-2.2-0.5-4.7-0.2-7.3c0.3-3.1,1-6,2.1-8.5c1-2.5,2.3-4.7,3.8-6.5c1.5-1.9,3.1-3.5,5-4.8c1.8-1.3,3.7-2.4,5.7-3.2
		c2-0.8,3.9-1.4,5.9-1.8c2-0.4,3.8-0.5,5.6-0.5c0.5,0,0.9,0.1,1.3,0.3c0.4,0.2,0.8,0.5,1,0.8c0.3,0.3,0.5,0.7,0.7,1.2
		c0.2,0.5,0.2,1,0.1,1.5L124.2,18.6z"/>
	<path class="st1" d="M170.8,72.6c-1,0-1.9-0.2-2.7-0.5c-0.8-0.3-1.5-0.8-2-1.3c-0.6-0.6-1-1.2-1.3-2c-0.3-0.8-0.5-1.6-0.6-2.5
		c-1.3,1.9-2.7,3.4-4.3,4.6c-1.6,1.2-3.4,1.8-5.4,1.8c-1.5,0-2.8-0.3-3.9-0.9c-1.1-0.6-2-1.5-2.7-2.6c-0.7-1.1-1.2-2.5-1.4-4.1
		c-0.2-1.6-0.3-3.4,0-5.3c0.3-2.4,0.7-4.7,1.3-7.1c0.6-2.4,1.2-4.5,1.8-6.5c0.7-2.2,1.5-4.4,2.3-6.5c0.2-0.4,0.3-0.8,0.5-1.2
		c0.1-0.4,0.3-0.7,0.6-1.1c0.3-0.3,0.7-0.6,1.3-0.8c0.6-0.2,1.5-0.3,2.7-0.3c1.1,0,1.8,0.2,2.1,0.6c0.3,0.4,0.3,0.9,0.2,1.4
		c-0.1,0.5-0.4,1.1-0.7,1.6c-0.3,0.6-0.6,1-0.7,1.4c-0.6,1.7-1.1,3.2-1.6,4.5c-0.5,1.4-0.9,2.7-1.3,4.1c-0.4,1.4-0.7,2.8-1,4.3
		c-0.3,1.5-0.5,3.2-0.7,5c-0.3,2.4-0.1,4.3,0.5,5.5c0.6,1.3,1.5,1.9,2.8,1.9c0.9,0,1.8-0.3,2.6-1c0.8-0.7,1.6-1.6,2.4-2.7
		c0.8-1.1,1.4-2.4,2.1-3.8c0.6-1.4,1.2-2.9,1.6-4.5l1.6-14.4c0.1-0.6,0.1-1.2,0-1.5c-0.1-0.4-0.1-0.7-0.2-0.9
		c-0.1-0.2-0.2-0.4-0.2-0.5c-0.1-0.1-0.1-0.3-0.1-0.5c0-0.1,0.1-0.3,0.3-0.4s0.4-0.2,0.7-0.3s0.6-0.2,1-0.2c0.3,0,0.7-0.1,1-0.1
		c1.5,0,2.6,0.4,3.4,1.2c0.8,0.8,1.1,1.7,1,2.8l-2.5,22.7c0,0.2,0,0.5-0.1,1c0,0.5,0,0.9,0.1,1.4s0.3,0.9,0.6,1.2
		c0.3,0.3,0.7,0.5,1.3,0.5c0.9,0,1.7-0.3,2.4-1c0.7-0.6,1.4-1.4,2-2.4s1.1-2,1.5-3.1c0.4-1.1,0.8-2.2,1.1-3.2c0.3-0.9,0.6-1.6,1.1-2
		c0.5-0.4,0.9-0.6,1.3-0.6c0.3,0,0.7,0.1,1.1,0.3c0.4,0.2,0.7,0.5,0.9,0.9c0.3,0.3,0.5,0.7,0.6,1.2c0.1,0.4,0.2,0.9,0.1,1.3
		c0,0.1,0,0.1,0,0.2s-0.1,0.2-0.1,0.4c-0.6,1.5-1.3,3-2.1,4.7s-1.8,3.1-3,4.5c-1.2,1.4-2.5,2.5-4,3.4
		C174.4,72.2,172.7,72.6,170.8,72.6z"/>
	<path class="st1" d="M175.6,28.1c0.7,0.1,1.4,0.1,2.2,0.1c0.7,0.1,1.5,0.1,2.5,0.1c1,0,2.1,0,3.3,0.1l1.7-15.2
		c0.1-0.6,0.1-1.2,0-1.5c-0.1-0.4-0.1-0.7-0.2-0.9c-0.1-0.2-0.2-0.4-0.2-0.5c-0.1-0.1-0.1-0.3-0.1-0.4c0-0.2,0.1-0.3,0.3-0.4
		c0.2-0.1,0.4-0.2,0.7-0.3c0.3-0.1,0.6-0.2,1-0.2c0.3,0,0.7-0.1,1-0.1c1.5,0,2.6,0.4,3.4,1.2c0.8,0.8,1.1,1.7,1,2.8l-1.7,15.7
		c2.7,0,5.6,0,8.7-0.1c3-0.1,6.1-0.2,9.2-0.3c0.5-0.4,0.8-0.6,1-0.5c0.2,0.1,0.4,0.4,0.4,0.8c0,0.4,0,1-0.2,1.6
		c-0.1,0.6-0.3,1.3-0.6,1.9c-0.2,0.6-0.5,1.1-0.9,1.6c-0.4,0.4-0.7,0.7-1.1,0.7c-3.6,0.1-6.8,0.1-9.5,0.2c-2.8,0-5.3,0-7.7,0
		l-3.1,28.4c-0.2,1.5,0,2.5,0.5,3.1c0.5,0.6,1.2,1,2.1,1c0.9,0,1.7-0.3,2.4-1s1.4-1.4,2-2.4s1.1-2,1.5-3.1c0.4-1.1,0.8-2.2,1.1-3.2
		c0.3-0.9,0.6-1.6,1.1-2c0.5-0.4,0.9-0.6,1.3-0.6c0.3,0,0.7,0.1,1.1,0.3c0.4,0.2,0.7,0.5,0.9,0.9c0.3,0.3,0.5,0.7,0.6,1.2
		c0.1,0.4,0.2,0.9,0.1,1.3c0,0.1,0,0.1,0,0.2s-0.1,0.2-0.1,0.4c-0.5,1.5-1.2,3-2.1,4.7s-1.8,3.1-3,4.5c-1.2,1.4-2.5,2.5-4.1,3.4
		c-1.5,0.9-3.3,1.4-5.2,1.4c-1.2,0-2.3-0.2-3.2-0.5c-1-0.4-1.8-0.9-2.4-1.7c-0.6-0.8-1.1-1.8-1.4-3.1c-0.3-1.3-0.3-2.8-0.1-4.5
		l3.2-28.4c-1,0-1.9,0-2.6,0c-0.8,0-1.4,0-1.9-0.1c-0.6,0-1.1-0.1-1.6-0.1c-0.7,0-1.3-0.3-1.8-0.9c-0.5-0.6-0.8-1.3-0.9-2.1
		c-0.1-0.8-0.1-1.4,0.1-2.1C174.5,28.4,174.9,28.1,175.6,28.1z"/>
	<path class="st1" d="M201.6,57.9c-0.3,0.9-0.8,1.5-1.5,1.7c-0.7,0.2-1.3,0.2-1.9-0.1c-0.6-0.3-1.1-0.7-1.4-1.4s-0.4-1.3-0.1-2.1
		c0.7-2,1.5-4.2,2.6-6.6c1.1-2.4,2.2-4.8,3.3-7.2c-0.4-0.7-0.6-1.3-0.8-2c-0.2-0.7-0.2-1.4-0.2-2.2s0.5-1.6,1.1-2.4
		c0.7-0.8,1.4-1.6,2.3-2.3c0.9-0.7,1.8-1.3,2.7-1.7c0.9-0.5,1.7-0.7,2.3-0.7c1.1,0,1.8,0.4,2.3,1.1c0.5,0.7,0.6,1.7,0.5,2.9
		c-0.1,0.7-0.3,1.3-0.5,2c-0.3,0.7-0.6,1.3-0.9,1.8c-0.3,0.6-0.6,1.1-0.9,1.5c-0.3,0.4-0.4,0.7-0.5,0.8c0.8,1.9,1.8,3.5,2.7,4.9
		s1.9,2.8,2.7,4.2c0.8,1.4,1.4,2.9,1.8,4.5c0.4,1.6,0.5,3.4,0.3,5.5c-0.1,0.5-0.2,1.1-0.3,1.6c-0.1,0.6-0.3,1.1-0.5,1.6
		c1.1-0.2,2-0.5,2.9-1c0.8-0.4,1.6-0.9,2.3-1.5c0.7-0.6,1.2-1.2,1.7-1.9c0.5-0.7,0.9-1.4,1.2-2.1c0.4-0.8,0.8-1.5,1.2-1.8
		c0.4-0.4,0.7-0.6,1.2-0.6c0.4,0,0.8,0.1,1.1,0.4c0.4,0.2,0.7,0.6,0.9,0.9c0.3,0.4,0.5,0.8,0.6,1.2c0.1,0.4,0.2,0.8,0.2,1.1
		c0,0.4-0.2,1-0.5,1.6s-0.7,1.2-1.1,1.9c-0.5,0.6-1,1.3-1.5,1.9c-0.6,0.6-1.1,1.1-1.7,1.6c-1.5,1.1-3.3,2.1-5.3,2.9
		c-2,0.8-4.4,1.3-7.2,1.5c-1.2,0.9-2.5,1.7-4.1,2.3c-1.5,0.6-3.2,0.9-5.1,0.9c-0.9,0-1.9-0.1-2.8-0.3c-0.9-0.2-1.8-0.5-2.7-0.9
		c-0.8-0.4-1.6-0.8-2.3-1.2c-0.7-0.4-1.2-0.9-1.6-1.3c-1-1-1.6-2.1-1.8-3.2c-0.2-1.1-0.2-2,0.1-2.9s0.6-1.5,1.2-2.1
		c0.5-0.5,1-0.8,1.5-0.8c0.3,0,0.7,0.1,1.3,0.4c0.6,0.2,1.3,0.6,2.1,1c0.8,0.4,1.6,0.8,2.5,1.2c0.9,0.4,1.8,0.9,2.7,1.2
		c0.9,0.4,1.8,0.7,2.7,1c0.9,0.2,1.7,0.4,2.5,0.4c0.6-0.6,1.1-1.4,1.6-2.3c0.5-1,0.8-2,1-3.1c0.2-1.4,0.1-2.7-0.1-3.9
		c-0.2-1.2-0.6-2.3-1.1-3.3c-0.5-1-1.1-2-1.8-2.9c-0.7-0.9-1.4-1.7-2.1-2.5c-0.9,1.7-1.7,3.4-2.4,5.1
		C203.2,53.8,202.4,55.7,201.6,57.9z"/>
	<path class="st1" d="M229.8,15c0.1-0.6,0.1-1.1,0-1.5c-0.1-0.4-0.1-0.7-0.2-0.9c-0.1-0.2-0.2-0.4-0.2-0.5c-0.1-0.1-0.1-0.3-0.1-0.4
		c0-0.2,0.1-0.3,0.3-0.4c0.2-0.1,0.4-0.2,0.7-0.3c0.3-0.1,0.6-0.2,1-0.2c0.3,0,0.7-0.1,1-0.1c1.5,0,2.6,0.4,3.4,1.2
		c0.8,0.8,1.1,1.7,1,2.8l-3.3,29.4c0.8-1.3,1.5-2.4,2.4-3.5c0.8-1.1,1.7-2,2.6-2.8c0.9-0.8,1.9-1.4,2.9-1.9c1-0.5,2-0.7,3.2-0.7
		c1.5,0,2.7,0.3,3.6,0.8c0.9,0.6,1.6,1.3,2,2.1c0.5,0.9,0.7,1.9,0.8,2.9c0.1,1.1,0.1,2.1,0,3.1l-2.1,18.5c0,0.2,0,0.5-0.1,1
		c0,0.5,0,0.9,0.1,1.4c0.1,0.5,0.3,0.9,0.5,1.2c0.3,0.3,0.7,0.5,1.3,0.5c0.9,0,1.7-0.3,2.4-1s1.4-1.4,2-2.4s1.1-2,1.5-3.1
		c0.4-1.1,0.8-2.2,1.1-3.2c0.3-0.9,0.6-1.6,1-2c0.4-0.4,0.8-0.6,1.3-0.7c0.4,0,0.8,0.1,1.3,0.3c0.4,0.3,0.7,0.6,1,1
		c0.3,0.4,0.5,0.9,0.6,1.4c0.1,0.5,0.1,1-0.1,1.5c-0.6,1.5-1.3,3-2.1,4.7s-1.8,3.1-3,4.5c-1.2,1.4-2.5,2.5-4,3.4
		c-1.5,0.9-3.3,1.4-5.2,1.4c-1.2,0-2.2-0.2-3.1-0.7s-1.6-1.1-2.2-1.8c-0.6-0.8-1-1.6-1.2-2.7c-0.2-1-0.3-2.1-0.1-3.2l2-18.2
		c0.1-0.7,0.1-1.4,0.2-2c0-0.6,0-1.2-0.1-1.6c-0.1-0.5-0.2-0.8-0.4-1.1c-0.2-0.3-0.5-0.4-1-0.4c-0.6,0-1.5,0.4-2.5,1.3
		c-1,0.9-2.1,2-3.1,3.4c-1.1,1.4-2,3-2.9,4.7c-0.9,1.8-1.5,3.5-1.9,5.3l-1.4,13.1c0,0.4-0.1,0.9-0.2,1.3c-0.1,0.5-0.2,0.9-0.4,1.2
		c-0.2,0.4-0.5,0.7-0.8,0.9c-0.4,0.2-0.9,0.4-1.5,0.4c-0.4,0-0.9-0.1-1.4-0.2c-0.5-0.1-0.9-0.3-1.3-0.6c-0.4-0.3-0.7-0.7-0.9-1.2
		c-0.2-0.5-0.3-1.2-0.2-2L229.8,15z"/>
	<path class="st1" d="M280.1,44.1c-0.2,1.7-0.7,3.4-1.4,5.1c-0.8,1.7-1.8,3.4-3.1,5c-1.3,1.6-2.8,3-4.6,4.2c-1.8,1.2-3.8,2.2-6,2.8
		c0.2,0.8,0.5,1.5,0.9,2.2c0.4,0.7,0.9,1.3,1.5,1.8c0.6,0.5,1.3,0.9,2.2,1.2c0.9,0.3,1.9,0.4,3,0.4c1.7,0,3.3-0.3,4.6-1
		s2.5-1.5,3.5-2.6c1-1.1,1.8-2.3,2.5-3.6c0.7-1.3,1.2-2.7,1.6-4.1c0.3-1,0.8-1.7,1.5-2c0.7-0.3,1.3-0.4,1.9-0.2
		c0.6,0.2,1.2,0.5,1.6,1.1c0.4,0.6,0.5,1.2,0.4,2c-0.2,0.9-0.5,1.9-0.9,3.1c-0.4,1.2-1,2.3-1.6,3.5c-0.7,1.2-1.5,2.4-2.5,3.5
		c-1,1.2-2.2,2.2-3.5,3.1c-1.4,0.9-2.9,1.6-4.7,2.2c-1.8,0.6-3.7,0.8-5.9,0.8c-2,0-4-0.4-5.8-1.2c-1.8-0.8-3.4-2-4.7-3.5
		s-2.3-3.3-2.9-5.5c-0.6-2.2-0.8-4.7-0.5-7.5c0.3-2.8,1-5.5,2.1-7.9s2.3-4.5,3.8-6.3c1.5-1.8,3.1-3.2,4.8-4.2s3.5-1.5,5.2-1.5
		c1.3,0,2.4,0.2,3.3,0.7c1,0.4,1.7,1.1,2.3,1.9c0.6,0.8,1,1.8,1.3,2.9C280.2,41.5,280.3,42.8,280.1,44.1z M264.5,54.7
		c0,0.3,0,0.5,0,0.8c0,0.3,0,0.5,0,0.8c1.2-0.5,2.2-1.2,3.2-2c1-0.8,1.9-1.7,2.6-2.8c0.8-1,1.4-2.2,1.9-3.4c0.5-1.2,0.8-2.5,1-3.9
		c0.1-1,0-1.8-0.2-2.3s-0.7-0.8-1.3-0.8c-0.7,0-1.4,0.2-2,0.7c-0.6,0.5-1.2,1.1-1.7,1.9c-0.5,0.8-1,1.7-1.3,2.7c-0.4,1-0.7,2-1,3
		c-0.3,1-0.5,2-0.7,2.9C264.7,53.3,264.6,54.1,264.5,54.7z"/>
	<path class="st1" d="M304.1,57.2c0.3-0.9,0.6-1.5,1-1.9c0.4-0.4,0.8-0.6,1.3-0.7c0.4,0,0.8,0.1,1.3,0.3c0.4,0.2,0.8,0.6,1,1
		c0.3,0.4,0.5,0.9,0.6,1.4s0.1,1-0.1,1.5c-0.5,1.2-1.3,2.6-2.2,4.2c-0.9,1.6-2.1,3.1-3.4,4.5c-1.3,1.4-2.8,2.6-4.5,3.6
		c-1.7,1-3.5,1.5-5.6,1.5c-1.7,0-3.2-0.3-4.4-0.9c-1.2-0.6-2.3-1.4-3-2.4c-0.8-1-1.3-2.3-1.6-3.7c-0.3-1.4-0.3-3-0.1-4.8l4.5-40.7
		c0.2-1.7,0.6-3.2,1.1-4.6c0.6-1.4,1.3-2.6,2.2-3.6c0.9-1,1.8-1.8,2.9-2.4c1.1-0.6,2.1-0.9,3.2-0.9c1.3,0,2.4,0.2,3.2,0.7
		c0.8,0.5,1.5,1.1,2,1.9c0.5,0.8,0.9,1.7,1.1,2.7c0.2,1,0.3,2.1,0.4,3.1c0,1.1,0,2.1-0.1,3.1c-0.1,1-0.2,2-0.3,2.8
		c-0.2,2.2-0.7,4.5-1.4,6.9s-1.5,4.8-2.3,7.1c-0.9,2.3-1.8,4.6-2.8,6.7s-1.9,4-2.8,5.7c-0.9,1.7-1.6,3-2.3,4.1
		c-0.7,1-1.1,1.7-1.3,1.8l-0.6,5.2c-0.2,1.8,0,3.3,0.6,4.4c0.6,1.2,1.8,1.7,3.4,1.7c1,0,2-0.3,3-0.9c1-0.6,1.8-1.4,2.6-2.4
		c0.8-0.9,1.5-2,2.1-3.1C303.4,59.2,303.8,58.1,304.1,57.2z M292.9,43.7c0.4-0.6,0.8-1.4,1.2-2.5c0.4-1,0.8-2.2,1.3-3.4
		c0.4-1.3,0.8-2.6,1.2-3.9s0.7-2.7,1.1-4c0.3-1.3,0.6-2.5,0.8-3.7s0.4-2.1,0.5-2.9c0.3-3,0.4-5.1,0.1-6.5c-0.3-1.4-0.8-2.1-1.5-2.1
		c-0.2,0-0.4,0.1-0.7,0.3c-0.2,0.2-0.4,0.5-0.5,0.9c-0.2,0.4-0.3,0.8-0.4,1.2c-0.1,0.4-0.2,0.8-0.2,1.2L292.9,43.7z"/>
	<path class="st1" d="M323.9,57.2c0.3-0.9,0.6-1.5,1-1.9c0.4-0.4,0.8-0.6,1.3-0.7c0.4,0,0.8,0.1,1.3,0.3c0.4,0.2,0.8,0.6,1,1
		c0.3,0.4,0.5,0.9,0.6,1.4s0.1,1-0.1,1.5c-0.5,1.2-1.3,2.6-2.2,4.2c-0.9,1.6-2.1,3.1-3.4,4.5c-1.3,1.4-2.8,2.6-4.5,3.6
		s-3.5,1.5-5.6,1.5c-1.7,0-3.2-0.3-4.4-0.9c-1.2-0.6-2.3-1.4-3-2.4c-0.8-1-1.3-2.3-1.6-3.7c-0.3-1.4-0.3-3-0.1-4.8l4.5-40.7
		c0.2-1.7,0.6-3.2,1.1-4.6c0.6-1.4,1.3-2.6,2.2-3.6c0.9-1,1.8-1.8,2.9-2.4c1.1-0.6,2.1-0.9,3.2-0.9c1.3,0,2.4,0.2,3.2,0.7
		c0.8,0.5,1.5,1.1,2,1.9c0.5,0.8,0.9,1.7,1.1,2.7c0.2,1,0.3,2.1,0.4,3.1c0,1.1,0,2.1-0.1,3.1s-0.2,2-0.3,2.8
		c-0.2,2.2-0.7,4.5-1.4,6.9c-0.7,2.4-1.5,4.8-2.3,7.1c-0.9,2.3-1.8,4.6-2.8,6.7c-1,2.1-1.9,4-2.8,5.7c-0.9,1.7-1.6,3-2.3,4.1
		c-0.7,1-1.1,1.7-1.3,1.8l-0.6,5.2c-0.2,1.8,0,3.3,0.6,4.4c0.6,1.2,1.8,1.7,3.4,1.7c1,0,2-0.3,3-0.9c1-0.6,1.8-1.4,2.6-2.4
		c0.8-0.9,1.5-2,2.1-3.1C323.1,59.2,323.5,58.1,323.9,57.2z M312.6,43.7c0.4-0.6,0.8-1.4,1.2-2.5c0.4-1,0.8-2.2,1.3-3.4
		c0.4-1.3,0.8-2.6,1.2-3.9c0.4-1.4,0.7-2.7,1.1-4c0.3-1.3,0.6-2.5,0.8-3.7c0.2-1.2,0.4-2.1,0.5-2.9c0.3-3,0.4-5.1,0.1-6.5
		c-0.3-1.4-0.8-2.1-1.5-2.1c-0.2,0-0.4,0.1-0.6,0.3c-0.2,0.2-0.4,0.5-0.5,0.9c-0.2,0.4-0.3,0.8-0.4,1.2c-0.1,0.4-0.2,0.8-0.2,1.2
		L312.6,43.7z"/>
</g>
<g>
	<path class="st1" d="M55.4,30.7l-1.7-2.6c-1.6-2.5-4.8-3.7-7.7-2.8l-14.2,4.1C29,30.3,27,33,27,36v3c0,0.5,0.5,0.9,1,0.7l27-7.9
		C55.5,31.7,55.7,31.1,55.4,30.7z"/>
	<path class="st1" d="M54.3,34.7L30,41.8l2.3,7.9c1.3,4.4,4.4,7.3,9.1,8.5c3.1,0.8,6,0.6,6.7,0.6c0.7-0.3,3.2-1.7,5.4-4.1
		c3.3-3.6,4.3-7.6,3-12.1L54.3,34.7z"/>
	<polygon class="st1" points="40,24.5 38.3,21.9 35.7,22.7 37.4,25.2 	"/>
	<path class="st1" d="M42.1,8C24.3,8,9.8,22.4,9.8,40.2s14.5,32.3,32.3,32.3S74.4,58,74.4,40.2S59.9,8,42.1,8z M55.4,56.4
		c-2.9,3.1-6.2,4.6-6.4,4.7c-0.5,0.2-4.5,0.5-8.3-0.5c-5.6-1.4-9.4-5-10.9-10.2l-2.4-8.1c-1.7-0.1-3.1-1.5-3.1-3.3v-3
		c0-4.2,2.8-7.8,6.7-8.9l3.7-1.1l-2.2-3.3C32,22,32.4,21,33.2,20.8l5.1-1.5c0.5-0.2,1.1,0.1,1.4,0.5l2.7,4l2.8-0.8
		c4-1.2,8.3,0.5,10.5,3.9l1.7,2.6c1,1.5,0.5,3.5-0.8,4.4L59,42C60.6,47.2,59.4,52.2,55.4,56.4z"/>
</g>
<circle class="st2" cx="42.1" cy="40.3" r="37.3"/>
</svg>
