<?xml version="1.0" encoding="utf-8"?>
<!-- Generator: Adobe Illustrator 23.0.3, SVG Export Plug-In . SVG Version: 6.00 Build 0)  -->
<svg version="1.1" id="Layer_1" xmlns="http://www.w3.org/2000/svg" xmlns:xlink="http://www.w3.org/1999/xlink" x="0px" y="0px"
	 viewBox="0 0 231 35" style="enable-background:new 0 0 231 35;" xml:space="preserve">
<style type="text/css">
	.st0{fill:#2CB79C;}
</style>
<g>
	<path class="st0" d="M31.89,34.76L9.14,11.33L6.93,8.86v25.9H0.37V-0.23h6.3l22.06,23.38l2.26,2.52v-25.9h6.57v34.99H31.89z"/>
	<path class="st0" d="M70.08,34.76v-7.72c-2.99,5.52-6.99,8.41-12.77,8.41c-6.62,0-10.19-3.78-10.19-9.56V10.18h6.3v14.61
		c0,4.1,2.21,6.25,6.51,6.25c4.83,0,9.61-4.62,9.61-10.56v-10.3h6.25v24.59H70.08z"/>
	<path class="st0" d="M93.36,14.27v12.98c0,2.78,1.31,5.57,3.68,7.51h-7.3c-1.79-1.63-2.68-4.31-2.68-7.51V14.27h-5.31v-4.1h5.31
		V5.92l6.3-2.21v6.46h6.57v4.1H93.36z"/>
	<path class="st0" d="M126.82,16.85c-2.05-1.58-5.73-3.2-9.19-3.2c-4.47,0-7.04,1.31-7.04,2.99c0,4.99,20.28,0.89,20.28,10.82
		c0,3.57-4.26,7.72-13.03,7.72c-5.46,0-10.45-1.63-13.97-4.68l3.52-3.2c3.05,2.15,6.78,3.62,10.93,3.62c4.31,0,6.78-1.1,6.78-3.21
		c0-5.2-20.12-1.1-20.12-10.61c0-3.78,4.36-7.72,12.19-7.72c5.88,0,9.67,1.68,13.29,4.41L126.82,16.85z"/>
	<path class="st0" d="M159.13,34.76V20.16c0-4.1-1.79-6.25-5.67-6.25c-5.04,0-9.72,4.83-9.72,10.82v10.03h-5.99V-0.23h5.99v16.71
		c2.89-5.04,7.46-6.99,12.4-6.99c5.73,0,9.3,4.2,9.3,9.77v15.5H159.13z"/>
	<path class="st0" d="M178.52,23.31v0.16c0,4.2,3.99,7.46,9.51,7.46c4.47,0,6.99-1.21,9.93-3.62l3.15,2.94
		c-3.47,3.31-7.46,4.94-13.61,4.94c-8.41,0-15.08-5.04-15.08-12.35v-0.47c0-6.93,5.67-12.98,14.66-12.98
		c9.19,0,14.81,5.88,14.81,13.13v0.79H178.52z M195.86,19.95c0-2.84-3.68-6.3-8.67-6.3c-5.1,0-8.51,2.99-8.51,6.3V20h17.18V19.95z"
		/>
	<path class="st0" d="M209.1,34.76V-0.23h5.99v34.99H209.1z"/>
	<path class="st0" d="M224.54,34.76V-0.23h5.99v34.99H224.54z"/>
</g>
</svg>
